<svg width="1024" height="1024" xmlns="http://www.w3.org/2000/svg" p-id="48001" version="1.1" class="icon" t="1651153271894">

 <g>
  <title>Layer 1</title>
  <rect stroke="null" id="svg_4" height="801.38838" width="812.49946" y="112.16629" x="102.27805" fill="#ffffff"/>
  <path id="svg_1" p-id="48002" fill="#6966FD" d="m849.17071,0c97.40488,0 174.82927,77.42439 174.82927,174.82927l0,674.34146c0,97.40488 -77.42439,174.82927 -174.82927,174.82927l-674.34146,0c-97.40488,0 -174.82927,-77.42439 -174.82927,-174.82927l0,-674.34146c0,-97.40488 77.42439,-174.82927 174.82927,-174.82927l674.34146,0zm-109.89268,596.91707l-239.76585,154.84878l-239.76586,-154.84878c-9.99024,-4.99512 -22.47805,-4.99512 -29.97073,4.99512l-2.49756,2.49757c-7.49268,9.99024 -2.49756,24.97561 7.49268,29.97073l252.25366,162.34146c2.49756,0 2.49756,2.49756 4.99512,2.49756l9.99025,0c2.49756,0 4.99512,-2.49756 4.99512,-2.49756l252.25366,-162.34146c9.99024,-7.49268 12.4878,-19.98049 7.49268,-29.97073c-2.49756,-12.48781 -17.48293,-14.98537 -27.47317,-7.49269zm0,-89.91219l-239.76585,154.84878l-239.76586,-154.84878c-9.99024,-4.99512 -22.47805,-4.99512 -29.97073,4.99512l-2.49756,2.49756c-7.49268,9.99024 -2.49756,24.97561 7.49268,29.97073l252.25366,162.34147c2.49756,0 2.49756,2.49756 4.99512,2.49756l9.99025,0c2.49756,0 4.99512,-2.49756 4.99512,-2.49756l252.25366,-162.34147c9.99024,-7.49268 12.4878,-19.98049 7.49268,-29.97073c-2.49756,-12.4878 -17.48293,-14.98537 -27.47317,-7.49268zm-239.76585,-257.24878l-4.99513,0c-2.49756,0 -4.99512,2.49756 -4.99512,2.49756l-254.75122,162.34146c-7.49268,4.99512 -9.99024,12.48781 -9.99024,19.98049c0,7.49268 2.49756,14.98537 9.99024,19.98049l252.25366,162.34146c2.49756,0 2.49756,2.49756 4.99512,2.49756l9.99025,0c2.49756,0 4.99512,-2.49756 4.99512,-2.49756l252.25366,-162.34146c4.99512,-2.49756 9.99024,-9.99025 9.99024,-14.98537l0,-2.49756c0,-7.49268 -2.49756,-14.98536 -9.99024,-19.98049l-252.25366,-162.34146c-2.49756,0 -2.49756,-2.49756 -4.99512,-2.49756c0,-2.49756 0,-2.49756 -2.49756,-2.49756z"/>
 </g>
</svg>